<svg viewBox="0 0 150 150" fill="#9ECADA" xmlns="http://www.w3.org/2000/svg">
<path d="M142.91 233.4C111.96 215.38 76.7599 204.42 39.2399 201.34C38.9499 201.32 38.7499 201.62 38.8699 201.88L45.4499 215.38C46.3099 217.13 47.9199 218.52 49.8499 218.79C81.3599 223.17 111.38 234.05 137.48 249.82C137.66 249.93 137.9 249.86 138 249.67L144.12 237.55C144.87 236.06 144.34 234.23 142.9 233.4H142.91Z" fill="#2B8AAF"></path>
<path d="M143.18 233.57C141.13 232.32 139.83 231.64 139.83 231.64C139.83 231.64 141.91 233.2 142.04 234.35C142.21 235.8 140.28 236.33 140.28 236.33L131.91 238.46C112.97 242.84 93.04 245.22 72.93 245.22C69.67 245.22 66.32 245.16 63.04 245.04C61.81 244.99 61.32 246.16 61.87 247.26L67.81 259.6C68.53 261.04 69.83 261.93 71.44 261.94C71.94 261.94 72.43 261.94 72.93 261.94C93.69 261.94 113.95 259.63 133.41 255.26C134.7 254.97 135.79 254.11 136.38 252.93L142.63 240.55L143.44 238.94L144.39 237.05C144.39 237.05 145.4 234.93 143.17 233.57H143.18Z"></path>
<path d="M109.5 306.38L78.9099 245.15C72.1299 245.28 66.5399 245.07 63.3299 244.9C62.0099 244.83 61.1099 246.21 61.6999 247.4L98.1599 320.04C99.0899 321.89 101.72 321.89 102.65 320.04L109.5 306.39V306.38Z"></path>
<path d="M117.82 283.44C105.93 285.23 93.6799 286.34 81.4099 286.69L98.7299 321.18C99.4199 322.55 101.38 322.55 102.07 321.18L119.71 286.03C120.37 284.72 119.28 283.22 117.82 283.44Z"></path><path d="M24.53 173.4L38.43 201.1L49.29 202.11C51.6 202.28 54.36 202.47 57.61 202.66C62.66 203.01 67.71 203.19 72.85 203.19C99.03 203.19 124.58 198.39 147.85 189.89C149.19 189.4 150.28 188.41 150.92 187.14L170.54 147.92C175.91 137.19 179.99 125.84 182.42 114.09C183.37 109.49 184.04 104.93 184.04 101.24C184.04 40.19 118.32 -6.77008 54.85 30.9499C44.86 36.8899 36.98 45.68 30.58 55.16C12.66 81.7 13.58 114.04 25.11 137.73L24.93 137.39L25.6 138.74C25.74 139.01 25.87 139.29 26.01 139.56L44.48 176.21C35.24 174.99 30.8 174.4 27.52 173.92C25.57 173.63 23.88 172.39 23.03 170.61L21.2 166.8L10.42 145.32L10.32 145.12C3.86999 131.86 -0.0100098 116.98 -0.0100098 101.24C-0.0100098 28.84 78.13 -26.7701 151.67 14.8399C165.21 22.4999 178.39 35.21 186.6 49.9C204.33 81.63 204.03 114.32 192.68 140.78L192.47 141.25L173.69 178.48L162.62 200.53C162.01 201.75 160.98 202.71 159.72 203.21C132.86 213.99 103.52 219.92 72.85 219.92C65.16 219.92 57.56 219.55 50.05 218.82C48.14 218.63 46.46 217.45 45.61 215.73L38.43 201.12L24.53 173.4Z"></path>
</svg>